<?xml version="1.0" encoding="utf-8"?>
<!-- Svg Vector Icons : http://www.onlinewebfonts.com/icon -->
<!DOCTYPE svg PUBLIC "-//W3C//DTD SVG 1.1//EN" "http://www.w3.org/Graphics/SVG/1.1/DTD/svg11.dtd">
<svg version="1.1" xmlns="http://www.w3.org/2000/svg" xmlns:xlink="http://www.w3.org/1999/xlink" x="0px" y="0px" viewBox="0 0 1000 1000" enable-background="new 0 0 1000 1000" xml:space="preserve">
<metadata> Svg Vector Icons : http://www.onlinewebfonts.com/icon </metadata>
<g><g transform="translate(0.000000,511.000000) scale(0.100000,-0.100000)"><path d="M4586.6,4931.3c-419.7-37.8-1061.8-184.7-1292.7-298c-314.8-151.1-249.7-610.7,96.5-675.7c48.3-8.4,130.1,6.3,262.3,50.4c413.4,130.1,652.6,178.4,1068.1,209.9c778.5,60.9,1605.3-132.2,2320.9-539.3c356.7-205.7,610.7-405,917.1-721.9c331.6-344.1,543.5-650.5,753.4-1089.1C8978.7,1303,9102.6,742.7,9102.6,94.3c-2.1-646.3-136.4-1221.3-423.9-1811c-58.8-117.5-115.4-214.1-128-214.1c-10.5,0-138.5,67.2-285.4,151.1c-232.9,134.3-279.1,153.2-392.4,159.5c-121.7,8.4-130.1,6.3-182.6-58.8c-48.3-54.6-56.7-86-56.7-191c0-142.7,277-1479.4,327.4-1573.9c44.1-86,146.9-144.8,258.1-144.8c58.8,0,337.9,79.7,801.6,232.9c652.6,212,719.8,237.1,795.3,310.6c67.2,62.9,83.9,94.4,83.9,153.2c0,128-71.4,203.6-367.2,377.7c-151.1,88.1-289.6,172.1-308.5,188.9c-35.7,25.2-27.3,46.2,94.4,289.6C9648.2-1374.7,9793-785,9809.8-19c12.6,533-18.9,852-132.2,1299C9197,3198,7608.4,4627.1,5658.9,4899.9C5363,4939.7,4857.3,4956.5,4586.6,4931.3z"/><path d="M964.6,3563.1c-635.8-209.9-705.1-235-780.6-308.5c-65.1-60.8-83.9-94.4-83.9-149c0-146.9,88.1-226.6,499.4-459.6c104.9-60.8,193.1-113.3,193.1-115.4c0-4.2-65.1-142.7-146.9-310.6C400.1,1710.1,242.7,1164.5,181.8,608.4c-31.5-287.5-12.6-998.9,31.5-1248.6C408.5-1716.7,842.9-2568.7,1569-3296.9c390.3-390.3,784.8-673.6,1280.1-921.3c1124.8-562.4,2411.2-658.9,3619.9-270.7c216.2,69.3,268.6,94.4,323.2,155.3c130.1,149,136.4,329.5,16.8,465.9c-75.5,86-170,132.2-268.6,132.2c-37.8,0-167.9-31.5-289.6-71.4c-1387.1-449.1-2912.7-123.8-4010.2,854.1c-474.3,423.9-896.1,1042.9-1112.2,1636.8C790.4-384.2,794.6,642,1138.8,1563.2c83.9,222.5,247.6,566.6,281.2,585.5c10.5,6.3,130.1-50.4,268.6-130.1c319-182.6,346.3-193.1,465.9-193.1c77.7,0,109.1,10.5,146.9,50.4c65.1,69.3,86,182.6,63,325.3c-48.3,293.8-291.7,1389.2-323.2,1448c-48.3,96.5-146.9,149-272.8,146.9C1694.9,3794,1451.4,3724.7,964.6,3563.1z"/></g></g>
</svg>